<svg width="65" height="65" viewBox="0 0 65 65" fill="none" xmlns="http://www.w3.org/2000/svg">
<rect x="0.217773" y="0.141113" width="64" height="64" rx="32" fill="#2162F0"/>
<path d="M38.4385 18.8216C40.3565 18.7017 42.2479 19.3677 43.6731 20.673C44.9784 22.0982 45.6444 23.9895 45.5379 25.9209V38.3613C45.6577 40.2927 44.9784 42.184 43.6864 43.6092C42.2612 44.9146 40.3565 45.5805 38.4385 45.4607H25.9979C24.0666 45.5805 22.1752 44.9146 20.75 43.6092C19.4447 42.184 18.7787 40.2927 18.8985 38.3613V25.9209C18.7787 23.9895 19.4447 22.0982 20.75 20.673C22.1752 19.3677 24.0666 18.7017 25.9979 18.8216H38.4385ZM38.0922 24.9086C37.2664 24.0828 35.9344 24.0828 35.1086 24.9086L34.2162 25.8143C34.083 25.9475 34.083 26.1739 34.2162 26.3071C34.2162 26.3071 34.2423 26.3331 34.2888 26.3794L34.6165 26.7052C34.806 26.8938 35.0425 27.1293 35.2801 27.366L36.0855 28.1711C36.2536 28.3399 36.3651 28.4531 36.3739 28.4649C36.5205 28.6247 36.6137 28.8379 36.6137 29.0776C36.6137 29.5571 36.2274 29.9567 35.7346 29.9567C35.5082 29.9567 35.295 29.8635 35.1485 29.7169L32.9241 27.5059C32.8176 27.3993 32.6311 27.3993 32.5246 27.5059L26.1711 33.8593C25.7315 34.2989 25.4785 34.8849 25.4651 35.511L25.3852 38.6677C25.3852 38.8408 25.4385 39.0007 25.5584 39.1205C25.6783 39.2404 25.8381 39.307 26.0112 39.307H29.1414C29.7807 39.307 30.3934 39.054 30.8596 38.6011L39.8237 29.6104C40.6362 28.7846 40.6362 27.4526 39.8237 26.6401L38.0922 24.9086Z" fill="white"/>
</svg>
