<svg width="114" height="33" viewBox="0 0 114 33" fill="none" xmlns="http://www.w3.org/2000/svg">
<path d="M1.48463 21.1411V9.94111H3.18063V19.7971H8.26863V21.1411H1.48463ZM13.3983 21.3331C12.6196 21.3331 11.9263 21.1624 11.3183 20.8211C10.7209 20.4691 10.2516 19.9838 9.91026 19.3651C9.56892 18.7464 9.39826 18.0264 9.39826 17.2051C9.39826 16.3731 9.56359 15.6424 9.89426 15.0131C10.2356 14.3838 10.7049 13.8931 11.3023 13.5411C11.9103 13.1891 12.6143 13.0131 13.4143 13.0131C14.1929 13.0131 14.8703 13.1891 15.4463 13.5411C16.0223 13.8824 16.4703 14.3411 16.7903 14.9171C17.1103 15.4931 17.2703 16.1278 17.2703 16.8211C17.2703 16.9278 17.2649 17.0451 17.2543 17.1731C17.2543 17.2904 17.2489 17.4238 17.2383 17.5731H11.0623C11.1156 18.3411 11.3663 18.9278 11.8143 19.3331C12.2729 19.7278 12.8009 19.9251 13.3983 19.9251C13.8783 19.9251 14.2783 19.8184 14.5983 19.6051C14.9289 19.3811 15.1743 19.0824 15.3343 18.7091H17.0303C16.8169 19.4558 16.3903 20.0798 15.7503 20.5811C15.1209 21.0824 14.3369 21.3331 13.3983 21.3331ZM13.3983 14.4051C12.8329 14.4051 12.3316 14.5758 11.8943 14.9171C11.4569 15.2478 11.1903 15.7491 11.0943 16.4211H15.5743C15.5423 15.8024 15.3236 15.3118 14.9183 14.9491C14.5129 14.5864 14.0063 14.4051 13.3983 14.4051ZM21.718 21.3331C21.046 21.3331 20.4913 21.2211 20.054 20.9971C19.6167 20.7731 19.2913 20.4798 19.078 20.1171C18.8647 19.7438 18.758 19.3384 18.758 18.9011C18.758 18.1331 19.0567 17.5251 19.654 17.0771C20.2513 16.6291 21.1047 16.4051 22.214 16.4051H24.294V16.2611C24.294 15.6424 24.1233 15.1784 23.782 14.8691C23.4513 14.5598 23.0193 14.4051 22.486 14.4051C22.0167 14.4051 21.606 14.5224 21.254 14.7571C20.9127 14.9811 20.7047 15.3171 20.63 15.7651H18.934C18.9873 15.1891 19.1793 14.6984 19.51 14.2931C19.8513 13.8771 20.278 13.5624 20.79 13.3491C21.3127 13.1251 21.8833 13.0131 22.502 13.0131C23.6113 13.0131 24.47 13.3064 25.078 13.8931C25.686 14.4691 25.99 15.2584 25.99 16.2611V21.1411H24.518L24.374 19.7811C24.15 20.2184 23.8247 20.5864 23.398 20.8851C22.9713 21.1838 22.4113 21.3331 21.718 21.3331ZM22.054 19.9571C22.5127 19.9571 22.8967 19.8504 23.206 19.6371C23.526 19.4131 23.7713 19.1198 23.942 18.7571C24.1233 18.3944 24.2353 17.9944 24.278 17.5571H22.39C21.718 17.5571 21.238 17.6744 20.95 17.9091C20.6727 18.1438 20.534 18.4371 20.534 18.7891C20.534 19.1518 20.6673 19.4398 20.934 19.6531C21.2113 19.8558 21.5847 19.9571 22.054 19.9571ZM27.9675 21.1411V13.2051H29.4875L29.6315 14.7091C29.9088 14.1864 30.2928 13.7758 30.7835 13.4771C31.2848 13.1678 31.8875 13.0131 32.5915 13.0131V14.7891H32.1275C31.6582 14.7891 31.2368 14.8691 30.8635 15.0291C30.5008 15.1784 30.2075 15.4398 29.9835 15.8131C29.7702 16.1758 29.6635 16.6824 29.6635 17.3331V21.1411H27.9675ZM34.0456 21.1411V13.2051H35.5496L35.6776 14.5971C35.923 14.1064 36.2803 13.7224 36.7496 13.4451C37.2296 13.1571 37.779 13.0131 38.3976 13.0131C39.3576 13.0131 40.1096 13.3118 40.6536 13.9091C41.2083 14.5064 41.4856 15.3971 41.4856 16.5811V21.1411H39.8056V16.7571C39.8056 15.2211 39.1763 14.4531 37.9176 14.4531C37.2883 14.4531 36.7656 14.6771 36.3496 15.1251C35.9443 15.5731 35.7416 16.2131 35.7416 17.0451V21.1411H34.0456ZM47.5784 21.1411V9.94111H49.5784L53.3704 17.3971L57.1464 9.94111H59.1464V21.1411H57.4504V12.8691L54.0264 19.5411H52.7144L49.2744 12.8851V21.1411H47.5784ZM65.0701 21.3331C64.3128 21.3331 63.6301 21.1624 63.0221 20.8211C62.4248 20.4691 61.9501 19.9838 61.5981 19.3651C61.2461 18.7358 61.0701 18.0051 61.0701 17.1731C61.0701 16.3411 61.2461 15.6158 61.5981 14.9971C61.9608 14.3678 62.4461 13.8824 63.0541 13.5411C63.6621 13.1891 64.3395 13.0131 65.0861 13.0131C65.8435 13.0131 66.5208 13.1891 67.1181 13.5411C67.7261 13.8824 68.2061 14.3678 68.5581 14.9971C68.9208 15.6158 69.1021 16.3411 69.1021 17.1731C69.1021 18.0051 68.9208 18.7358 68.5581 19.3651C68.2061 19.9838 67.7261 20.4691 67.1181 20.8211C66.5101 21.1624 65.8275 21.3331 65.0701 21.3331ZM65.0701 19.8771C65.4755 19.8771 65.8488 19.7758 66.1901 19.5731C66.5421 19.3704 66.8248 19.0718 67.0381 18.6771C67.2515 18.2718 67.3581 17.7704 67.3581 17.1731C67.3581 16.5758 67.2515 16.0798 67.0381 15.6851C66.8355 15.2798 66.5581 14.9758 66.2061 14.7731C65.8648 14.5704 65.4915 14.4691 65.0861 14.4691C64.6808 14.4691 64.3021 14.5704 63.9501 14.7731C63.6088 14.9758 63.3315 15.2798 63.1181 15.6851C62.9048 16.0798 62.7981 16.5758 62.7981 17.1731C62.7981 17.7704 62.9048 18.2718 63.1181 18.6771C63.3315 19.0718 63.6088 19.3704 63.9501 19.5731C64.2915 19.7758 64.6648 19.8771 65.0701 19.8771ZM70.9363 21.1411V13.2051H72.4563L72.6003 14.7091C72.8776 14.1864 73.2616 13.7758 73.7523 13.4771C74.2536 13.1678 74.8563 13.0131 75.5603 13.0131V14.7891H75.0963C74.6269 14.7891 74.2056 14.8691 73.8323 15.0291C73.4696 15.1784 73.1763 15.4398 72.9523 15.8131C72.7389 16.1758 72.6323 16.6824 72.6323 17.3331V21.1411H70.9363ZM80.5076 21.3331C79.729 21.3331 79.0356 21.1624 78.4276 20.8211C77.8303 20.4691 77.361 19.9838 77.0196 19.3651C76.6783 18.7464 76.5076 18.0264 76.5076 17.2051C76.5076 16.3731 76.673 15.6424 77.0036 15.0131C77.345 14.3838 77.8143 13.8931 78.4116 13.5411C79.0196 13.1891 79.7236 13.0131 80.5236 13.0131C81.3023 13.0131 81.9796 13.1891 82.5556 13.5411C83.1316 13.8824 83.5796 14.3411 83.8996 14.9171C84.2196 15.4931 84.3796 16.1278 84.3796 16.8211C84.3796 16.9278 84.3743 17.0451 84.3636 17.1731C84.3636 17.2904 84.3583 17.4238 84.3476 17.5731H78.1716C78.225 18.3411 78.4756 18.9278 78.9236 19.3331C79.3823 19.7278 79.9103 19.9251 80.5076 19.9251C80.9876 19.9251 81.3876 19.8184 81.7076 19.6051C82.0383 19.3811 82.2836 19.0824 82.4436 18.7091H84.1396C83.9263 19.4558 83.4996 20.0798 82.8596 20.5811C82.2303 21.0824 81.4463 21.3331 80.5076 21.3331ZM80.5076 14.4051C79.9423 14.4051 79.441 14.5758 79.0036 14.9171C78.5663 15.2478 78.2996 15.7491 78.2036 16.4211H82.6836C82.6516 15.8024 82.433 15.3118 82.0276 14.9491C81.6223 14.5864 81.1156 14.4051 80.5076 14.4051Z" fill="#2162F0"/>
<path d="M93.3486 17.3412C93.3486 16.9615 93.6308 16.6478 93.9969 16.5981L94.0986 16.5912L107.283 16.5918L102.52 11.8483C102.226 11.5561 102.225 11.0812 102.517 10.7877C102.783 10.5208 103.2 10.4957 103.494 10.7129L103.578 10.7854L109.628 16.8094C109.667 16.8479 109.7 16.8896 109.729 16.9336C109.737 16.9469 109.745 16.9604 109.753 16.9743C109.76 16.9861 109.766 16.9984 109.773 17.0109C109.781 17.029 109.789 17.0477 109.797 17.0668C109.803 17.0815 109.808 17.0958 109.813 17.1103C109.818 17.1281 109.824 17.1472 109.828 17.1666C109.832 17.1801 109.834 17.1931 109.837 17.2062C109.84 17.2256 109.843 17.2457 109.845 17.266C109.847 17.2816 109.848 17.2969 109.848 17.3123C109.848 17.3217 109.849 17.3314 109.849 17.3412L109.848 17.3703C109.848 17.385 109.847 17.3997 109.845 17.4144L109.849 17.3412C109.849 17.3886 109.844 17.4349 109.836 17.4798C109.834 17.4905 109.832 17.5015 109.829 17.5125C109.824 17.535 109.818 17.5568 109.81 17.5781C109.807 17.5887 109.803 17.6 109.799 17.6112C109.79 17.6338 109.78 17.6553 109.77 17.6763C109.765 17.6861 109.76 17.6964 109.754 17.7067C109.744 17.7233 109.735 17.7391 109.725 17.7546C109.717 17.7655 109.709 17.7769 109.701 17.788L109.695 17.7967C109.674 17.8231 109.652 17.8481 109.629 17.8716L109.628 17.8723L103.578 23.8973C103.285 24.1896 102.81 24.1886 102.517 23.8951C102.252 23.6283 102.228 23.2115 102.447 22.9184L102.52 22.8344L107.281 18.0918L94.0986 18.0912C93.6844 18.0912 93.3486 17.7555 93.3486 17.3412Z" fill="#2162F0"/>
</svg>
