<svg width="65" height="65" viewBox="0 0 65 65" fill="none" xmlns="http://www.w3.org/2000/svg">
<rect x="0.783203" y="0.141113" width="64" height="64" rx="32" fill="#2162F0"/>
<path d="M38.8038 20.1411C43.4023 20.1411 46.1164 22.7872 46.1164 27.3168H40.4749V27.3631C37.8567 27.3631 35.7342 29.4324 35.7342 31.9851C35.7342 34.5378 37.8567 36.6072 40.4749 36.6072H46.1164V37.0232C46.1164 41.495 43.4023 44.1411 38.8038 44.1411H26.7623C22.1638 44.1411 19.4497 41.495 19.4497 37.0232V27.2591C19.4497 22.7872 22.1638 20.1411 26.7623 20.1411H38.8038ZM45.1208 29.3043C45.6707 29.3043 46.1164 29.7389 46.1164 30.275V33.6491C46.11 34.1825 45.668 34.6134 45.1208 34.6197H40.5816C39.2561 34.6371 38.097 33.7523 37.7964 32.4935C37.6458 31.7122 37.8572 30.9059 38.3738 30.2907C38.8904 29.6756 39.6595 29.3145 40.4749 29.3043H45.1208ZM41.1149 30.8643H40.6764C40.4071 30.8612 40.1479 30.9633 39.9564 31.1478C39.7649 31.3324 39.6571 31.584 39.6571 31.8465C39.6571 32.3972 40.1115 32.8454 40.6764 32.8518H41.1149C41.6778 32.8518 42.1342 32.4068 42.1342 31.858C42.1342 31.3092 41.6778 30.8643 41.1149 30.8643ZM33.2927 25.3294H25.7667C25.2084 25.3293 24.754 25.7672 24.7475 26.3116C24.7475 26.8623 25.2019 27.3105 25.7667 27.3168H33.2927C33.8556 27.3168 34.3119 26.8719 34.3119 26.3231C34.3119 25.7743 33.8556 25.3294 33.2927 25.3294Z" fill="white"/>
</svg>
